<?xml version="1.0" standalone="no"?>
<!DOCTYPE svg PUBLIC "-//W3C//DTD SVG 20010904//EN"
 "http://www.w3.org/TR/2001/REC-SVG-20010904/DTD/svg10.dtd">
<svg version="1.0" xmlns="http://www.w3.org/2000/svg"
 width="525.000000pt" height="525.000000pt" viewBox="0 0 525.000000 525.000000"
 preserveAspectRatio="xMidYMid meet">
<metadata>
Created by potrace 1.11, written by Peter Selinger 2001-2013
</metadata>
<g transform="translate(0.000000,525.000000) scale(0.100000,-0.100000)"
fill="#000000" stroke="none">
<path d="M774 3855 c-144 -31 -260 -95 -381 -209 -184 -173 -312 -428 -370
-739 -24 -128 -24 -436 0 -564 58 -311 186 -566 370 -739 176 -165 349 -232
572 -220 61 3 270 6 465 7 203 0 371 5 393 10 54 14 122 80 143 137 14 39 18
96 22 345 2 163 1 308 -2 321 -13 51 -82 44 -119 -12 -22 -34 -81 -104 -132
-156 -23 -24 -230 -256 -325 -365 -36 -41 -79 -80 -97 -87 -19 -8 -69 -14
-123 -14 l-90 0 0 1090 0 1090 90 0 c54 0 104 -6 123 -14 18 -7 61 -46 97 -87
95 -109 302 -341 325 -365 51 -52 110 -122 132 -156 37 -55 106 -63 119 -14 3
12 4 146 2 297 l-3 274 -30 60 c-21 42 -43 69 -73 90 l-44 30 -501 2 c-391 1
-516 -1 -563 -12z"/>
<path d="M3619 3842 c-60 -31 -113 -93 -129 -150 -14 -51 -14 -2073 0 -2124
16 -57 69 -119 129 -150 l53 -28 692 0 c432 0 705 4 727 10 58 16 102 51 126
100 21 44 22 56 24 383 1 186 -1 340 -4 343 -13 13 -47 -9 -71 -47 -22 -33
-332 -398 -532 -627 -31 -35 -67 -63 -111 -84 l-64 -31 -27 20 c-54 40 -56 54
-60 609 -3 456 -2 512 12 517 21 8 177 -72 257 -133 82 -61 187 -172 205 -216
16 -37 44 -50 74 -34 20 11 20 18 20 450 0 432 0 439 -20 450 -30 16 -58 3
-74 -34 -18 -44 -123 -155 -205 -216 -80 -61 -236 -141 -257 -133 -14 5 -15
59 -12 497 4 533 6 549 60 589 l27 20 64 -31 c44 -21 80 -49 111 -84 200 -229
510 -594 532 -627 24 -38 58 -60 71 -47 3 3 5 157 4 343 -2 327 -3 339 -24
383 -24 49 -68 84 -126 100 -22 6 -295 10 -727 10 l-692 0 -53 -28z"/>
<path d="M2790 2593 c-8 -3 -39 -14 -68 -25 -56 -21 -82 -41 -82 -63 0 -19
289 -355 306 -355 35 0 100 202 91 285 -7 70 -23 100 -71 132 -31 21 -55 28
-101 30 -33 1 -67 0 -75 -4z"/>
<path d="M2451 2415 c-92 -86 -126 -188 -101 -304 11 -55 25 -74 182 -267 93
-115 213 -264 266 -331 l97 -122 248 0 c136 -1 247 2 247 5 0 3 -49 66 -110
140 -86 106 -108 139 -101 152 5 10 41 57 80 106 39 49 71 94 71 101 0 7 -6
18 -14 24 -22 18 -54 -7 -126 -99 -35 -44 -66 -80 -69 -80 -4 0 -137 162 -296
360 -192 239 -295 360 -307 360 -11 0 -40 -20 -67 -45z"/>
<path d="M2261 1917 c-6 -8 -23 -45 -38 -83 -24 -61 -27 -83 -27 -194 -1 -133
16 -213 52 -241 14 -11 61 -13 230 -11 239 4 248 7 194 65 -17 17 -101 124
-187 237 -85 113 -162 213 -170 223 -18 20 -38 22 -54 4z"/>
</g>
</svg>
